<?xml version="1.0" encoding="UTF-8"?>
<svg id="_레이어_1" data-name="레이어 1" xmlns="http://www.w3.org/2000/svg" viewBox="0 0 200 200">
  <defs>
    <style>
      .cls-1 {
        fill: #0a1f44;
        stroke-width: 0px;
      }
    </style>
  </defs>
  <polygon class="cls-1" points="112.16 100.51 114.39 89.37 80.47 89.37 82.97 76.87 112.82 76.87 115.07 65.57 70.57 65.57 63.6 100.51 112.16 100.51"/>
  <polygon class="cls-1" points="128.39 125.35 132.54 104.49 66.31 104.49 64.52 113.49 115.78 113.49 115.04 117.23 63.77 117.23 59.57 138.32 127.07 138.32 128.9 129.17 77 129.17 77.76 125.35 128.39 125.35"/>
  <polygon class="cls-1" points="141.2 62.25 125.56 64.05 117.98 102.1 133.1 102.1 141.2 62.25"/>
  <path class="cls-1" d="M159.89,20.56H40.11c-10.8,0-19.55,8.75-19.55,19.55v119.77c0,10.8,8.75,19.55,19.55,19.55h119.77c10.8,0,19.55-8.75,19.55-19.55V40.11c0-10.8-8.75-19.55-19.55-19.55ZM136.09,146.73H46.22l17.42-89.87,90.15-3.59-17.69,93.46Z"/>
</svg>