<?xml version="1.0" encoding="UTF-8"?>
<svg id="_레이어_2" data-name="레이어 2" xmlns="http://www.w3.org/2000/svg" viewBox="0 0 349.05 71.42">
  <defs>
    <style>
      .cls-1 {
        fill: #0a1f44;
        stroke-width: 0px;
      }
    </style>
  </defs>
  <g id="_레이어_1-2" data-name="레이어 1">
    <g>
      <g>
        <path class="cls-1" d="M38.67,24.91l-4.56,22.87c-2.06,10.34-10.2,16.06-19.99,16.06S-1.65,58.12.41,47.78l4.56-22.87C7.02,14.63,15.11,8.85,25.02,8.85s15.71,5.72,13.65,16.06ZM27.76,23.81c.74-3.71-1.41-5.72-4.59-5.66-3.24.06-6.12,2.01-6.85,5.66l-4.98,25c-.76,3.83,1.35,5.72,4.58,5.72s6.09-1.89,6.86-5.72l4.98-25ZM61.67,29.47l-1.99,9.98h-5.78l-5.09,25.55h-11.56l11.32-56.75h11.56l-4.23,21.23h5.78Z"/>
        <path class="cls-1" d="M61.67,65l4.67-23.42h51.22l-4.67,23.42h-51.22ZM67.75,21.99c1.76-8.82,9.98-13.44,19.96-13.44s16.43,4.56,14.66,13.44l-.69,3.47c-1.77,8.88-9.98,13.44-19.96,13.44s-16.43-4.56-14.66-13.44l.69-3.47ZM74.61,57.15h28.47l1.55-7.79h-28.47l-1.55,7.79ZM78.31,25.46c-.58,2.92,1.24,5.05,5.02,5.05s6.51-2.13,7.09-5.05l.69-3.47c.58-2.92-1.29-5.11-5.08-5.05-3.78.06-6.45,2.13-7.03,5.05l-.69,3.47ZM106.36,39.45l6.22-31.21h11.56l-6.22,31.21h-11.56Z"/>
        <path class="cls-1" d="M213.51,40.42l-2.52,12.65h26.34l-1.87,9.37h-37.65l6.25-31.33h18.37l2.28-11.44h-18.07l1.9-9.55h29.38l-6.04,30.29h-18.37ZM250.64,8.24h11.56l-11.32,56.75h-11.56l5-25.06h-9.98l1.95-9.79h9.98l4.37-21.9Z"/>
        <path class="cls-1" d="M133.7,2.75l-13.31,68.67h68.67L202.59,0l-68.89,2.75ZM139.01,9.4h34l-1.72,8.64h-22.81l-1.9,9.55h25.91l-1.7,8.52h-37.11l5.32-26.7ZM183.58,58l-1.39,7h-51.58l3.21-16.12h39.17l.57-2.86h-39.17l1.37-6.87h50.61l-3.18,15.94h-38.69l-.58,2.92h39.66ZM186.79,37.32h-11.56l5.8-29.08,11.95-1.37-6.19,30.45Z"/>
      </g>
      <g>
        <path class="cls-1" d="M345.32,7.97h-64.12c-1.79,0-3.33,1.07-3.66,2.54l-11.33,50.12c-.44,1.92,1.32,3.71,3.66,3.71h64.12c1.79,0,3.33-1.07,3.66-2.54l11.33-50.12c.44-1.92-1.32-3.71-3.66-3.71ZM303.67,53.3l-.69-6.73h-10.48l-3.26,6.73h-7.86l17.66-34.3h8.13l4.32,34.3h-7.82ZM321.7,53.3h-7.67l6.67-34.3h7.67l-6.67,34.3Z"/>
        <polygon class="cls-1" points="295.63 40.12 302.32 40.12 301.16 28.78 295.63 40.12"/>
      </g>
    </g>
  </g>
</svg>